# xmcd
#
# Track frame offsets:
#	150
#	15973
#	37366
#	48923
#	60974
#	74774
#	95783
#	111962
#	128011
#	147558
#	170560
#
# Disc length: 2432 seconds
#
# Revision: 1
# Processed by: cddbd v1.5.2PL0 Copyright (c) Steve Scherf et al.
# Submitted via: audiograbber 1.83.01
#
DISCID=a1097e0b
DTITLE=The Secret Show - Impressionist Road Map Of The West
DYEAR=2007
DGENRE=Country
TTITLE0=Lovers
TTITLE1=Two Drowned Rats In The Desert
TTITLE2=The Girl From Chapel Hill
TTITLE3=We Blaze A Trail
TTITLE4=Impressionist Road Map Of The West
TTITLE5=The Duke
TTITLE6=Mañana
TTITLE7=The Widow
TTITLE8=Old Blacktop
TTITLE9=Everyone's A Critic
TTITLE10=The One That I Love
EXTD=
EXTT0=
EXTT1=
EXTT2=
EXTT3=
EXTT4=
EXTT5=
EXTT6=
EXTT7=
EXTT8=
EXTT9=
EXTT10=
PLAYORDER=
